<svg width="88" height="25" viewBox="0 0 88 25" fill="none" xmlns="http://www.w3.org/2000/svg">
<path d="M13.0873 3.52C13.1273 3.74667 13.154 3.90667 13.1673 4C13.194 4.08 13.2073 4.19333 13.2073 4.34C13.2073 4.78 13.1073 5.19333 12.9073 5.58C12.7207 5.95333 12.4607 6.22 12.1273 6.38C11.8607 6.02 11.534 5.71333 11.1473 5.46C10.7607 5.19333 10.334 4.98 9.86734 4.82C9.41401 4.64667 8.94068 4.52 8.44734 4.44C7.95401 4.36 7.47401 4.32 7.00734 4.32C6.54068 4.32 6.10068 4.36 5.68734 4.44C5.28734 4.50667 4.92734 4.60667 4.60734 4.74C4.30068 4.86 4.05401 5.01333 3.86734 5.2C3.69401 5.38667 3.60734 5.6 3.60734 5.84C3.64734 6.13333 3.82734 6.43333 4.14734 6.74C4.46734 7.03333 4.86068 7.32667 5.32734 7.62C5.79401 7.9 6.30734 8.18 6.86734 8.46C7.44068 8.74 8.00068 9.00667 8.54734 9.26C9.22734 9.58 9.81401 9.88 10.3073 10.16C10.8007 10.4267 11.2073 10.7267 11.5273 11.06C11.8473 11.38 12.0873 11.7467 12.2473 12.16C12.4073 12.5733 12.4873 13.0733 12.4873 13.66C12.4873 14.34 12.374 14.98 12.1473 15.58C11.9207 16.1667 11.5873 16.68 11.1473 17.12C10.7207 17.56 10.2007 17.9 9.58734 18.14C8.97401 18.3933 8.28734 18.52 7.52734 18.52C6.78068 18.52 5.97401 18.4067 5.10734 18.18C4.24068 17.9533 3.42734 17.64 2.66734 17.24C1.92068 16.8533 1.29401 16.4067 0.787344 15.9C0.294011 15.38 0.0473438 14.8333 0.0473438 14.26C0.0473438 13.9933 0.120677 13.6533 0.267344 13.24C0.427344 12.8267 0.707344 12.3933 1.10734 11.94C1.14734 12.34 1.36068 12.8133 1.74734 13.36C2.14734 13.9067 2.74068 14.4133 3.52734 14.88C4.26068 15.3067 5.01401 15.62 5.78734 15.82C6.57401 16.0067 7.30734 16.1 7.98734 16.1C8.73401 16.1 9.34068 16.0067 9.80734 15.82C10.274 15.6333 10.6407 15.4133 10.9073 15.16C11.174 14.8933 11.3607 14.6267 11.4673 14.36C11.574 14.0933 11.634 13.88 11.6473 13.72C11.634 13.4533 11.5073 13.2 11.2673 12.96C11.0407 12.7067 10.7273 12.4667 10.3273 12.24C9.94068 12 9.48734 11.76 8.96734 11.52C8.44734 11.28 7.90734 11.04 7.34734 10.8C6.50734 10.4267 5.78068 10.08 5.16734 9.76C4.56734 9.42667 4.06734 9.09333 3.66734 8.76C3.28068 8.41333 2.99401 8.05333 2.80734 7.68C2.63401 7.30667 2.54734 6.88 2.54734 6.4C2.54734 5.65333 2.77401 4.94667 3.22734 4.28C3.68068 3.61333 4.33401 3.10667 5.18734 2.76C5.61401 2.57333 6.06734 2.44 6.54734 2.36C7.04068 2.28 7.52068 2.24 7.98734 2.24C8.86734 2.24 9.72734 2.36 10.5673 2.6C11.4073 2.84 12.2473 3.14667 13.0873 3.52ZM12.5503 23.62C12.3636 23.5667 12.257 23.3667 12.2303 23.02C12.177 22.8467 12.137 22.64 12.1103 22.4C12.097 22.16 12.0903 21.8867 12.0903 21.58C12.0903 21.3 12.137 20.9133 12.2303 20.42C12.3236 19.94 12.4503 19.3933 12.6103 18.78C12.7836 18.1667 12.9903 17.5067 13.2303 16.8C13.4703 16.08 13.737 15.3533 14.0303 14.62C14.3903 13.7 14.7036 12.9067 14.9703 12.24C15.237 11.56 15.457 10.9733 15.6303 10.48C15.817 9.98667 15.9636 9.58 16.0703 9.26C16.1903 8.94 16.2836 8.66667 16.3503 8.44C16.4036 8.28 16.4836 8.08667 16.5903 7.86C16.697 7.63333 16.817 7.40667 16.9503 7.18C17.097 6.94 17.2436 6.72 17.3903 6.52C17.537 6.30667 17.6703 6.14667 17.7903 6.04C18.257 6.10667 18.697 6.22667 19.1103 6.4C19.5236 6.57333 19.777 6.74 19.8703 6.9C19.6836 7.07333 19.4703 7.34667 19.2303 7.72C18.9903 8.08 18.757 8.48 18.5303 8.92C18.3036 9.34667 18.097 9.78667 17.9103 10.24C17.7236 10.6933 17.5836 11.0933 17.4903 11.44C17.6236 11.2133 17.797 10.9667 18.0103 10.7C18.2236 10.4333 18.5503 10.0667 18.9903 9.6C19.4836 9.09333 19.9436 8.70667 20.3703 8.44C20.8103 8.16 21.1903 8.02 21.5103 8.02C22.017 8.02 22.4303 8.16 22.7503 8.44C23.0836 8.72 23.2503 9.08 23.2503 9.52C23.2503 10.48 23.0903 11.4333 22.7703 12.38C22.4503 13.3133 21.9903 14.16 21.3903 14.92C21.1636 15.2133 20.897 15.4933 20.5903 15.76C20.2836 16.0267 19.9636 16.2667 19.6303 16.48C19.297 16.68 18.9703 16.84 18.6503 16.96C18.3303 17.08 18.0436 17.14 17.7903 17.14C17.5503 17.14 17.337 17.0933 17.1503 17C16.977 16.8933 16.857 16.7667 16.7903 16.62C17.3103 16.3133 17.817 15.8867 18.3103 15.34C18.8036 14.7933 19.257 14.1667 19.6703 13.46C20.097 12.74 20.4636 11.9667 20.7703 11.14C21.0903 10.3133 21.3303 9.47333 21.4903 8.62C20.9836 8.88667 20.5236 9.18 20.1103 9.5C19.7103 9.80667 19.3103 10.2133 18.9103 10.72C18.4303 11.3067 18.0503 11.78 17.7703 12.14C17.4903 12.5 17.257 12.8067 17.0703 13.06C16.897 13.3133 16.7503 13.5533 16.6303 13.78C16.5236 13.9933 16.4036 14.26 16.2703 14.58C16.0836 15.0067 15.8636 15.5733 15.6103 16.28C15.3703 16.9733 15.117 17.7533 14.8503 18.62C14.597 19.4867 14.337 20.4067 14.0703 21.38C13.817 22.3667 13.5703 23.3467 13.3303 24.32C13.1836 24.2933 13.057 24.1867 12.9503 24C12.8436 23.88 12.7636 23.7933 12.7103 23.74C12.6703 23.6867 12.617 23.6467 12.5503 23.62ZM30.8713 8.92C31.0046 8.92 31.1579 8.94667 31.3313 9C31.5179 9.04 31.6846 9.1 31.8313 9.18C31.9779 9.24667 32.0979 9.32 32.1913 9.4C32.2979 9.48 32.3513 9.55333 32.3513 9.62C32.0846 10.18 31.8379 10.7467 31.6113 11.32C31.3846 11.88 31.1913 12.42 31.0313 12.94C30.8713 13.46 30.7446 13.9467 30.6513 14.4C30.5713 14.8533 30.5313 15.2467 30.5313 15.58C30.5313 15.9533 30.5713 16.2667 30.6513 16.52C30.7313 16.76 30.8646 16.9333 31.0513 17.04C30.8913 17.1467 30.6846 17.2333 30.4313 17.3C30.1779 17.3667 29.9513 17.4 29.7513 17.4C29.0313 17.4 28.6713 16.9067 28.6713 15.92C28.6713 15.16 28.9246 14.12 29.4313 12.8C29.1646 13.4133 28.8579 13.9933 28.5113 14.54C28.1646 15.0733 27.8113 15.5467 27.4513 15.96C27.0913 16.3733 26.7246 16.7133 26.3513 16.98C25.9913 17.2333 25.6579 17.3867 25.3513 17.44C24.8579 17.4133 24.4579 17.18 24.1513 16.74C23.8446 16.2867 23.6913 15.7133 23.6913 15.02C23.6913 14.2733 23.8513 13.4867 24.1713 12.66C24.4913 11.8333 24.8979 11.0667 25.3913 10.36C25.8979 9.65333 26.4446 9.06667 27.0312 8.6C27.6179 8.12 28.1846 7.86667 28.7313 7.84C28.8646 7.88 29.0113 7.96 29.1713 8.08C29.3446 8.2 29.5046 8.34 29.6513 8.5C29.8113 8.66 29.9446 8.82667 30.0513 9C30.1579 9.16 30.2179 9.3 30.2313 9.42C29.6979 9.5 29.1446 9.76 28.5713 10.2C28.0113 10.64 27.4979 11.1733 27.0312 11.8C26.5779 12.4133 26.2046 13.0733 25.9113 13.78C25.6179 14.4867 25.4713 15.1467 25.4713 15.76C25.4713 16.0133 25.5646 16.1733 25.7513 16.24C26.1379 16.16 26.5846 15.8333 27.0913 15.26C27.5979 14.6733 28.2113 13.7733 28.9313 12.56C29.0646 12.32 29.2113 12.0533 29.3713 11.76C29.5446 11.4667 29.7179 11.16 29.8913 10.84C30.0646 10.52 30.2313 10.2 30.3913 9.88C30.5646 9.54667 30.7246 9.22667 30.8713 8.92ZM33.3295 13.48C33.3295 12.72 33.4829 11.9867 33.7895 11.28C34.1095 10.56 34.5229 9.92667 35.0295 9.38C35.5495 8.82 36.1362 8.37333 36.7895 8.04C37.4562 7.69333 38.1429 7.52 38.8495 7.52C39.5429 7.52 40.0762 7.69333 40.4495 8.04C40.8229 8.38667 41.0095 8.88 41.0095 9.52C41.0095 9.82667 40.9629 10.1267 40.8695 10.42C40.7895 10.7 40.6762 10.9533 40.5295 11.18C40.3962 11.4067 40.2362 11.5933 40.0495 11.74C39.8629 11.8733 39.6762 11.94 39.4895 11.94C39.3295 11.94 39.1629 11.8933 38.9895 11.8C38.8295 11.6933 38.6962 11.56 38.5895 11.4C39.4829 10.5867 39.9295 9.84667 39.9295 9.18C39.9295 8.79333 39.7762 8.6 39.4695 8.6C39.2029 8.6 38.8695 8.72667 38.4695 8.98C38.0695 9.23333 37.6829 9.56667 37.3095 9.98C36.7362 10.62 36.2962 11.3333 35.9895 12.12C35.6962 12.8933 35.5495 13.7067 35.5495 14.56C35.5495 15.64 35.7895 16.2867 36.2695 16.5C36.4695 16.4733 36.7029 16.4133 36.9695 16.32C37.2362 16.2267 37.5229 16.1067 37.8295 15.96C38.1362 15.8 38.4495 15.62 38.7695 15.42C39.1029 15.22 39.4229 15.0067 39.7295 14.78C39.7829 14.82 39.8295 14.88 39.8695 14.96C39.9095 15.04 39.9295 15.1133 39.9295 15.18C39.7029 15.46 39.4429 15.7333 39.1495 16C38.8562 16.2667 38.5495 16.5133 38.2295 16.74C37.9095 16.9533 37.5962 17.1333 37.2895 17.28C36.9962 17.44 36.7362 17.54 36.5095 17.58C36.0695 17.54 35.6562 17.4 35.2695 17.16C34.8829 16.9333 34.5429 16.6333 34.2495 16.26C33.9695 15.8867 33.7429 15.46 33.5695 14.98C33.4095 14.5 33.3295 14 33.3295 13.48ZM48.768 8.72C48.7146 9.54667 48.568 10.26 48.328 10.86C48.088 11.4467 47.7413 11.9667 47.288 12.42C46.848 12.86 46.308 13.26 45.668 13.62C45.028 13.98 44.2813 14.3267 43.428 14.66C43.428 14.74 43.4213 14.8267 43.408 14.92C43.408 15 43.408 15.0867 43.408 15.18C43.408 15.3533 43.4213 15.5333 43.448 15.72C43.4746 15.9067 43.5213 16.08 43.588 16.24C43.6546 16.4 43.748 16.5333 43.868 16.64C43.988 16.7333 44.1413 16.78 44.328 16.78C44.688 16.78 45.0413 16.7 45.388 16.54C45.7346 16.38 46.0613 16.1867 46.368 15.96C46.688 15.72 46.9813 15.4667 47.248 15.2C47.528 14.92 47.7746 14.6667 47.988 14.44C48.1213 14.56 48.2346 14.6733 48.328 14.78C47.728 15.58 47.068 16.2467 46.348 16.78C45.6413 17.3 44.968 17.6333 44.328 17.78C43.408 17.6733 42.688 17.34 42.168 16.78C41.6613 16.2067 41.408 15.52 41.408 14.72C41.408 14.1733 41.4813 13.62 41.628 13.06C41.788 12.4867 42.0013 11.94 42.268 11.42C42.548 10.8867 42.868 10.3867 43.228 9.92C43.6013 9.45333 43.9946 9.04667 44.408 8.7C44.8346 8.35333 45.268 8.08 45.708 7.88C46.1613 7.68 46.608 7.58 47.048 7.58C47.6613 7.66 48.2346 8.04 48.768 8.72ZM47.388 9.38C47.028 9.43333 46.6546 9.58 46.268 9.82C45.8813 10.06 45.5146 10.38 45.168 10.78C44.8346 11.18 44.528 11.6467 44.248 12.18C43.968 12.7133 43.748 13.2867 43.588 13.9C44.6546 13.3667 45.5413 12.7133 46.248 11.94C46.9546 11.1533 47.3346 10.3 47.388 9.38ZM62.4955 6.22C62.4955 6.95333 62.3088 7.65333 61.9355 8.32C61.5755 8.98667 61.0821 9.57333 60.4555 10.08C59.8421 10.5733 59.1155 10.9667 58.2755 11.26C57.4488 11.5533 56.5688 11.7 55.6355 11.7C55.3021 11.7 55.0355 11.66 54.8355 11.58C54.6488 11.4867 54.4355 11.3133 54.1955 11.06C53.5288 12.5133 52.9821 13.8533 52.5555 15.08C52.1421 16.2933 51.8155 17.4733 51.5755 18.62C51.0688 18.5 50.6555 18.2867 50.3355 17.98C50.0155 17.6867 49.7221 17.3133 49.4555 16.86C49.5888 16.6067 49.7488 16.2733 49.9355 15.86C50.1221 15.4467 50.3488 14.94 50.6155 14.34C50.8821 13.7267 51.1888 13 51.5355 12.16C51.8955 11.3067 52.3155 10.3133 52.7955 9.18C53.0088 8.66 53.1955 8.20667 53.3555 7.82C53.5155 7.43333 53.6555 7.07333 53.7755 6.74C53.8955 6.39333 54.0021 6.05333 54.0955 5.72C54.2021 5.38667 54.3088 5.02 54.4155 4.62C53.7888 4.82 53.2088 5.05333 52.6755 5.32C52.1555 5.58667 51.7221 5.86667 51.3755 6.16C51.2555 6.08 51.1288 5.96 50.9955 5.8C50.8755 5.64 50.7621 5.46667 50.6555 5.28C50.5488 5.08 50.4555 4.88 50.3755 4.68C50.2955 4.48 50.2488 4.3 50.2355 4.14C50.6221 3.87333 51.1021 3.62667 51.6755 3.4C52.2488 3.17333 52.8621 2.98 53.5155 2.82C54.1688 2.64667 54.8421 2.51333 55.5355 2.42C56.2421 2.32667 56.9155 2.28 57.5555 2.28C58.3155 2.28 59.0021 2.38 59.6155 2.58C60.2288 2.76667 60.7488 3.03333 61.1755 3.38C61.6021 3.72667 61.9288 4.14 62.1555 4.62C62.3821 5.1 62.4955 5.63333 62.4955 6.22ZM58.9355 3.82C58.4288 3.82 57.9088 3.86 57.3755 3.94L57.6155 4.3C57.4821 4.47333 57.3155 4.73333 57.1155 5.08C56.9155 5.42667 56.6955 5.84667 56.4555 6.34C56.2155 6.82 55.9488 7.36 55.6555 7.96C55.3755 8.56 55.0755 9.19333 54.7555 9.86C55.7955 9.86 56.7421 9.76667 57.5955 9.58C58.4488 9.38 59.1755 9.11333 59.7755 8.78C60.3888 8.43333 60.8621 8.03333 61.1955 7.58C61.5421 7.12667 61.7155 6.64 61.7155 6.12C61.7155 5.42667 61.4821 4.87333 61.0155 4.46C60.5488 4.03333 59.8555 3.82 58.9355 3.82ZM68.0392 8.92C68.1726 8.92 68.3259 8.94667 68.4992 9C68.6859 9.04 68.8526 9.1 68.9992 9.18C69.1459 9.24667 69.2659 9.32 69.3592 9.4C69.4659 9.48 69.5192 9.55333 69.5192 9.62C69.2526 10.18 69.0059 10.7467 68.7792 11.32C68.5526 11.88 68.3592 12.42 68.1992 12.94C68.0392 13.46 67.9126 13.9467 67.8192 14.4C67.7392 14.8533 67.6992 15.2467 67.6992 15.58C67.6992 15.9533 67.7392 16.2667 67.8192 16.52C67.8992 16.76 68.0326 16.9333 68.2192 17.04C68.0592 17.1467 67.8526 17.2333 67.5992 17.3C67.3459 17.3667 67.1192 17.4 66.9192 17.4C66.1992 17.4 65.8392 16.9067 65.8392 15.92C65.8392 15.16 66.0926 14.12 66.5992 12.8C66.3326 13.4133 66.0259 13.9933 65.6792 14.54C65.3326 15.0733 64.9792 15.5467 64.6192 15.96C64.2592 16.3733 63.8926 16.7133 63.5192 16.98C63.1592 17.2333 62.8259 17.3867 62.5192 17.44C62.0259 17.4133 61.6259 17.18 61.3192 16.74C61.0126 16.2867 60.8592 15.7133 60.8592 15.02C60.8592 14.2733 61.0192 13.4867 61.3392 12.66C61.6592 11.8333 62.0659 11.0667 62.5592 10.36C63.0659 9.65333 63.6126 9.06667 64.1992 8.6C64.7859 8.12 65.3526 7.86667 65.8992 7.84C66.0326 7.88 66.1792 7.96 66.3392 8.08C66.5126 8.2 66.6726 8.34 66.8192 8.5C66.9792 8.66 67.1126 8.82667 67.2192 9C67.3259 9.16 67.3859 9.3 67.3992 9.42C66.8659 9.5 66.3126 9.76 65.7392 10.2C65.1792 10.64 64.6659 11.1733 64.1992 11.8C63.7459 12.4133 63.3726 13.0733 63.0792 13.78C62.7859 14.4867 62.6392 15.1467 62.6392 15.76C62.6392 16.0133 62.7326 16.1733 62.9192 16.24C63.3059 16.16 63.7526 15.8333 64.2592 15.26C64.7659 14.6733 65.3792 13.7733 66.0992 12.56C66.2326 12.32 66.3792 12.0533 66.5392 11.76C66.7126 11.4667 66.8859 11.16 67.0592 10.84C67.2326 10.52 67.3992 10.2 67.5592 9.88C67.7326 9.54667 67.8926 9.22667 68.0392 8.92ZM70.0538 16.6C70.1204 16.2133 70.2338 15.7067 70.3938 15.08C70.5671 14.44 70.7671 13.7667 70.9938 13.06C71.2204 12.34 71.4604 11.62 71.7138 10.9C71.9671 10.18 72.2138 9.53333 72.4538 8.96C72.6271 8.54667 72.7804 8.22667 72.9138 8C73.0471 7.76 73.1938 7.56 73.3538 7.4C73.5404 7.42667 73.7338 7.47333 73.9338 7.54C74.1338 7.60667 74.3271 7.68667 74.5138 7.78C74.7004 7.87333 74.8671 7.97333 75.0138 8.08C75.1604 8.17333 75.2738 8.26667 75.3538 8.36C74.9938 8.78667 74.6738 9.27333 74.3938 9.82C74.1271 10.3667 73.8538 11.0667 73.5738 11.92C74.2938 11.28 74.9271 10.6667 75.4738 10.08C76.0338 9.49333 76.5538 8.84 77.0338 8.12C77.1138 8.05333 77.2538 8.02 77.4538 8.02C77.6404 8.02 77.8204 8.05333 77.9938 8.12C78.1671 8.17333 78.2871 8.25333 78.3538 8.36C78.1138 9 77.9938 9.63333 77.9938 10.26C77.9938 10.8467 78.0804 11.2867 78.2538 11.58C78.2404 11.66 78.1471 11.8133 77.9738 12.04C77.8138 12.2667 77.6338 12.48 77.4338 12.68C77.0738 12.4933 76.7538 12.24 76.4738 11.92C76.1938 11.5867 75.9871 11.2267 75.8538 10.84C75.2271 11.28 74.6938 11.7133 74.2538 12.14C73.8138 12.5533 73.4338 13.02 73.1138 13.54C72.8071 14.0467 72.5404 14.6333 72.3138 15.3C72.1004 15.9667 71.8938 16.76 71.6938 17.68C71.5738 17.6667 71.4271 17.62 71.2538 17.54C71.0938 17.4733 70.9271 17.3867 70.7538 17.28C70.5938 17.1733 70.4471 17.06 70.3138 16.94C70.1804 16.82 70.0938 16.7067 70.0538 16.6ZM78.6402 15.12C78.6402 14.64 78.7602 13.9733 79.0002 13.12C79.2535 12.2667 79.5802 11.3333 79.9802 10.32C80.3802 9.30667 80.8335 8.26 81.3402 7.18C81.8468 6.1 82.3535 5.09333 82.8602 4.16C83.3802 3.22667 83.8735 2.42 84.3402 1.74C84.8202 1.06 85.2268 0.6 85.5602 0.36C85.7468 0.373333 85.9468 0.453333 86.1602 0.599999C86.3868 0.746666 86.5935 0.926666 86.7802 1.14C86.9668 1.34 87.1202 1.55333 87.2402 1.78C87.3735 2.00667 87.4402 2.21333 87.4402 2.4C86.8402 2.88 86.2268 3.5 85.6002 4.26C84.9868 5.00667 84.4002 5.83333 83.8402 6.74C83.2802 7.63333 82.7602 8.58667 82.2802 9.6C81.8135 10.6 81.4202 11.5867 81.1002 12.56C81.5268 11.8267 81.9735 11.16 82.4402 10.56C82.9068 9.96 83.3735 9.44667 83.8402 9.02C84.3068 8.59333 84.7602 8.26667 85.2002 8.04C85.6535 7.8 86.0802 7.67333 86.4802 7.66C87.0668 8.08667 87.3602 8.65333 87.3602 9.36C87.3602 9.78667 87.2735 10.22 87.1002 10.66C86.9268 11.0867 86.6935 11.4867 86.4002 11.86C86.1202 12.22 85.7935 12.5333 85.4202 12.8C85.0602 13.0533 84.6802 13.22 84.2802 13.3C84.4135 13.7667 84.5802 14.24 84.7802 14.72C84.9935 15.2 85.2402 15.6667 85.5202 16.12C85.8135 16.5733 86.1402 16.9933 86.5002 17.38C86.8735 17.7667 87.2935 18.0933 87.7602 18.36C87.6935 18.4933 87.5935 18.6267 87.4602 18.76C87.3268 18.8933 87.1668 19.0067 86.9802 19.1C86.7935 19.2067 86.5868 19.2867 86.3602 19.34C86.1468 19.4067 85.9335 19.44 85.7202 19.44C85.3602 19.44 85.0202 19.26 84.7002 18.9C84.3935 18.54 84.1135 18.02 83.8602 17.34C83.6602 16.7933 83.4668 16.14 83.2802 15.38C83.0935 14.62 82.9268 13.8267 82.7802 13C82.9668 12.88 83.2002 12.7067 83.4802 12.48C83.7602 12.24 84.0535 11.9667 84.3602 11.66C85.5335 10.5267 86.1202 9.54667 86.1202 8.72C86.1202 8.61333 86.0468 8.56 85.9002 8.56C85.6335 8.57333 85.3202 8.7 84.9602 8.94C84.6002 9.18 84.2135 9.51333 83.8002 9.94C83.4002 10.3667 82.9868 10.8667 82.5602 11.44C82.1468 12.0133 81.7468 12.6333 81.3602 13.3C81.2002 13.5667 81.0535 13.8733 80.9202 14.22C80.7868 14.5667 80.6668 14.9267 80.5602 15.3C80.4668 15.66 80.3935 16.02 80.3402 16.38C80.2868 16.74 80.2602 17.0733 80.2602 17.38C80.2602 17.5667 80.2802 17.72 80.3202 17.84C79.9068 17.8 79.6535 17.6933 79.5602 17.52C79.4535 17.36 79.3602 17.2267 79.2802 17.12C79.2135 17.0267 79.1402 16.9467 79.0602 16.88C78.9402 16.7867 78.8402 16.5867 78.7602 16.28C78.6802 15.9733 78.6402 15.5867 78.6402 15.12Z" fill="white"/>
</svg>
