<svg
  width="600"
  height="200"
  viewBox="0 0 600 200"
  fill="none"
  xmlns="http://www.w3.org/2000/svg"
>
  <rect width="600" height="200" fill="#F5F5F5" />
  <text
    x="50%"
    y="50%"
    dominant-baseline="middle"
    text-anchor="middle"
    font-family="'Arial', sans-serif"
    font-size="24"
    fill="#333"
  >
    Welcome to Parking Owner Dashboard!
  </text>
  <svg
    x="270"
    y="60"
    width="60"
    height="60"
    viewBox="0 0 24 24"
    fill="none"
    xmlns="http://www.w3.org/2000/svg"
  >
    <path
      d="M3 18v-1h1v-4H3v-1h1v-4H3V7h2.618a4.482 4.482 0 018.764 0H19v1h-1v4h1v1h-1v4h1v1h-8.5v1H8.5v-1H3zm12-9.5a3.5 3.5 0 10-7 0 3.5 3.5 0 007 0zM8.5 16h-2v2h2v-2zm9 2v-2h-2v2h2z"
      fill="#555"
    />
  </svg>
</svg>
